<svg width="32" height="32" viewBox="0 0 32 32" fill="none" xmlns="http://www.w3.org/2000/svg">
<path fill-rule="evenodd" clip-rule="evenodd" d="M13.0275 4.24447C13.3549 4.57097 13.3556 5.10107 13.0291 5.42848L8.98816 9.48065C8.66166 9.80806 8.13157 9.80879 7.80417 9.48228C7.47677 9.15578 7.47604 8.62568 7.80254 8.29827L11.8435 4.2461C12.17 3.91869 12.7001 3.91796 13.0275 4.24447Z" fill="#292D32"/>
<path fill-rule="evenodd" clip-rule="evenodd" d="M18.9561 4.2444C19.2835 3.9179 19.8136 3.91863 20.1401 4.24603L24.181 8.29821C24.5075 8.62561 24.5068 9.15571 24.1793 9.48222C23.8519 9.80873 23.3219 9.80799 22.9954 9.48059L18.9544 5.42842C18.6279 5.10101 18.6287 4.57091 18.9561 4.2444Z" fill="#292D32"/>
<path fill-rule="evenodd" clip-rule="evenodd" d="M6.02729 10.1724C5.90864 10.2518 5.67442 10.4723 5.67442 11.3675C5.67442 12.4831 5.93498 12.6329 5.97852 12.6579C6.04371 12.6955 6.16573 12.7358 6.41025 12.7538C6.59668 12.7675 6.78879 12.766 7.0274 12.7642C7.11623 12.7636 7.21152 12.7629 7.31535 12.7629H24.6847C24.7885 12.7629 24.8838 12.7636 24.9726 12.7642C25.2112 12.766 25.4033 12.7675 25.5897 12.7538C25.8343 12.7358 25.9554 12.696 26.0206 12.6584C26.0641 12.6334 26.3256 12.4831 26.3256 11.3675C26.3256 10.4723 26.0914 10.2518 25.9727 10.1724C25.764 10.0326 25.3969 9.97211 24.6847 9.97211H7.31535C6.60313 9.97211 6.23602 10.0326 6.02729 10.1724ZM5.0955 8.78114C5.78258 8.32093 6.65455 8.29766 7.31535 8.29766H24.6847C25.3455 8.29766 26.2174 8.32093 26.9045 8.78114C27.6817 9.30168 28 10.1975 28 11.3675C28 12.6438 27.7118 13.6163 26.8567 14.1092C26.4739 14.3298 26.0613 14.3981 25.7125 14.4237C25.4521 14.4429 25.1626 14.4406 24.9044 14.4385C24.8279 14.4379 24.7541 14.4373 24.6847 14.4373H7.31535C7.2459 14.4373 7.17214 14.4379 7.09562 14.4385C6.83742 14.4406 6.54791 14.4429 6.28754 14.4237C5.93869 14.3981 5.52606 14.3298 5.14335 14.1092C4.28817 13.6163 4 12.6438 4 11.3675C4 10.1975 4.31834 9.30168 5.0955 8.78114Z" fill="#292D32"/>
<path fill-rule="evenodd" clip-rule="evenodd" d="M25.6397 12.9449C26.0938 13.032 26.3913 13.4707 26.3042 13.9249L24.4289 23.7034C24.2314 24.7345 23.9735 25.8774 23.1699 26.7194C22.3305 27.599 21.0604 28 19.2196 28H12.4885C10.7562 28 9.49329 27.5673 8.62484 26.6878C7.78 25.8322 7.4399 24.6806 7.25312 23.5483L5.67894 13.902C5.60446 13.4457 5.91403 13.0153 6.37037 12.9409C6.82671 12.8664 7.25702 13.176 7.33149 13.6323L8.90522 23.2757C8.90526 23.276 8.90517 23.2755 8.90522 23.2757C9.07565 24.3086 9.34403 25.033 9.81629 25.5112C10.265 25.9657 11.0282 26.3255 12.4885 26.3255H19.2196C20.8505 26.3255 21.5729 25.9675 21.9586 25.5633C22.3802 25.1216 22.5799 24.4561 22.7843 23.3885L24.6597 13.6095C24.7468 13.1554 25.1855 12.8578 25.6397 12.9449Z" fill="#292D32"/>
<path d="M13.0291 5.42848L12.9229 5.32256L12.9229 5.32256L13.0291 5.42848ZM13.0275 4.24447L12.9215 4.35068L12.9215 4.35068L13.0275 4.24447ZM8.98816 9.48065L9.09437 9.58657L9.09437 9.58657L8.98816 9.48065ZM7.80254 8.29827L7.90875 8.40419L7.90875 8.40419L7.80254 8.29827ZM11.8435 4.2461L11.9497 4.35202L11.9497 4.35202L11.8435 4.2461ZM20.1401 4.24603L20.2463 4.14012L20.2463 4.14012L20.1401 4.24603ZM24.181 8.29821L24.0748 8.40412L24.0748 8.40412L24.181 8.29821ZM22.9954 9.48059L22.8891 9.58651L22.8891 9.58651L22.9954 9.48059ZM18.9544 5.42842L18.8482 5.53433L18.8482 5.53433L18.9544 5.42842ZM6.02729 10.1724L5.94382 10.0477L5.94382 10.0477L6.02729 10.1724ZM5.97852 12.6579L6.05342 12.5279L6.05328 12.5278L5.97852 12.6579ZM6.41025 12.7538L6.39926 12.9034L6.39926 12.9034L6.41025 12.7538ZM7.0274 12.7642L7.02627 12.6142L7.02627 12.6142L7.0274 12.7642ZM24.9726 12.7642L24.9737 12.6142L24.9737 12.6142L24.9726 12.7642ZM25.5897 12.7538L25.5788 12.6042L25.5788 12.6042L25.5897 12.7538ZM26.0206 12.6584L25.9458 12.5284L25.9457 12.5285L26.0206 12.6584ZM25.9727 10.1724L25.8892 10.297L25.8892 10.297L25.9727 10.1724ZM5.0955 8.78114L5.01202 8.65651L5.01202 8.65651L5.0955 8.78114ZM26.9045 8.78114L26.988 8.65651L26.988 8.65651L26.9045 8.78114ZM26.8567 14.1092L26.7818 13.9792L26.7818 13.9792L26.8567 14.1092ZM25.7125 14.4237L25.7235 14.5733L25.7235 14.5733L25.7125 14.4237ZM24.9044 14.4385L24.9056 14.2885L24.9056 14.2885L24.9044 14.4385ZM7.09562 14.4385L7.09443 14.2885L7.09443 14.2885L7.09562 14.4385ZM6.28754 14.4237L6.29853 14.2741L6.29853 14.2741L6.28754 14.4237ZM5.14335 14.1092L5.06845 14.2391L5.06845 14.2391L5.14335 14.1092ZM26.3042 13.9249L26.4515 13.9531L26.4515 13.9531L26.3042 13.9249ZM25.6397 12.9449L25.6679 12.7976L25.6679 12.7976L25.6397 12.9449ZM24.4289 23.7034L24.2816 23.6752L24.2816 23.6752L24.4289 23.7034ZM23.1699 26.7194L23.2785 26.8229L23.2785 26.8229L23.1699 26.7194ZM8.62484 26.6878L8.73158 26.5824L8.73158 26.5824L8.62484 26.6878ZM7.25312 23.5483L7.10508 23.5724L7.10512 23.5727L7.25312 23.5483ZM5.67894 13.902L5.53089 13.9262L5.53089 13.9262L5.67894 13.902ZM6.37037 12.9409L6.34621 12.7928L6.34621 12.7928L6.37037 12.9409ZM7.33149 13.6323L7.47954 13.6082L7.47954 13.6082L7.33149 13.6323ZM9.81629 25.5112L9.70955 25.6166L9.70955 25.6166L9.81629 25.5112ZM21.9586 25.5633L21.8501 25.4598L21.8501 25.4598L21.9586 25.5633ZM22.7843 23.3885L22.637 23.3603L22.637 23.3603L22.7843 23.3885ZM24.6597 13.6095L24.8071 13.6377L24.8071 13.6377L24.6597 13.6095ZM13.0291 5.42848L13.1353 5.5344C13.5203 5.14833 13.5194 4.52326 13.1334 4.13825L13.0275 4.24447L12.9215 4.35068C13.1903 4.61868 13.1909 5.05381 12.9229 5.32256L13.0291 5.42848ZM8.98816 9.48065L9.09437 9.58657L13.1353 5.5344L13.0291 5.42848L12.9229 5.32256L8.88195 9.37473L8.98816 9.48065ZM7.80417 9.48228L7.69825 9.5885C8.08431 9.9735 8.70938 9.97264 9.09437 9.58657L8.98816 9.48065L8.88195 9.37473C8.61395 9.64348 8.17883 9.64408 7.91009 9.37607L7.80417 9.48228ZM7.80254 8.29827L7.69632 8.19235C7.31133 8.57842 7.31219 9.20349 7.69825 9.5885L7.80417 9.48228L7.91009 9.37607C7.64135 9.10806 7.64075 8.67294 7.90875 8.40419L7.80254 8.29827ZM11.8435 4.2461L11.7373 4.14018L7.69632 8.19235L7.80254 8.29827L7.90875 8.40419L11.9497 4.35202L11.8435 4.2461ZM13.0275 4.24447L13.1334 4.13825C12.7473 3.75325 12.1223 3.75411 11.7373 4.14018L11.8435 4.2461L11.9497 4.35202C12.2177 4.08327 12.6528 4.08267 12.9215 4.35068L13.0275 4.24447ZM20.1401 4.24603L20.2463 4.14012C19.8613 3.75405 19.2362 3.75319 18.8501 4.13819L18.9561 4.2444L19.062 4.35061C19.3307 4.08261 19.7658 4.08321 20.0338 4.35195L20.1401 4.24603ZM24.181 8.29821L24.2872 8.19229L20.2463 4.14012L20.1401 4.24603L20.0338 4.35195L24.0748 8.40412L24.181 8.29821ZM24.1793 9.48222L24.2853 9.58843C24.6713 9.20343 24.6722 8.57835 24.2872 8.19229L24.181 8.29821L24.0748 8.40412C24.3428 8.67287 24.3422 9.108 24.0734 9.37601L24.1793 9.48222ZM22.9954 9.48059L22.8891 9.58651C23.2741 9.97257 23.8992 9.97344 24.2853 9.58843L24.1793 9.48222L24.0734 9.37601C23.8047 9.64402 23.3696 9.64342 23.1016 9.37467L22.9954 9.48059ZM18.9544 5.42842L18.8482 5.53433L22.8891 9.58651L22.9954 9.48059L23.1016 9.37467L19.0606 5.3225L18.9544 5.42842ZM18.9561 4.2444L18.8501 4.13819C18.4641 4.52319 18.4632 5.14827 18.8482 5.53433L18.9544 5.42842L19.0606 5.3225C18.7926 5.05375 18.7932 4.61862 19.062 4.35061L18.9561 4.2444ZM5.67442 11.3675H5.82442C5.82442 10.9314 5.8817 10.6739 5.94492 10.5215C6.00591 10.3745 6.07361 10.3219 6.11077 10.297L6.02729 10.1724L5.94382 10.0477C5.86233 10.1023 5.75359 10.1997 5.6678 10.4066C5.58425 10.608 5.52442 10.9084 5.52442 11.3675H5.67442ZM5.97852 12.6579L6.05328 12.5278C6.0505 12.5263 6.04134 12.5219 6.02563 12.5039C6.00828 12.4841 5.97991 12.4437 5.94979 12.3669C5.88878 12.2113 5.82442 11.9159 5.82442 11.3675H5.67442H5.52442C5.52442 11.9347 5.59034 12.272 5.67049 12.4764C5.71095 12.5796 5.75588 12.6511 5.79964 12.7012C5.84503 12.7532 5.88477 12.777 5.90376 12.7879L5.97852 12.6579ZM6.41025 12.7538L6.42125 12.6042C6.18615 12.5869 6.09021 12.5491 6.05342 12.5279L5.97852 12.6579L5.90362 12.7879C5.99721 12.8418 6.14531 12.8847 6.39926 12.9034L6.41025 12.7538ZM7.0274 12.7642L7.02627 12.6142C6.78618 12.6161 6.60047 12.6174 6.42125 12.6042L6.41025 12.7538L6.39926 12.9034C6.5929 12.9176 6.79141 12.916 7.02852 12.9142L7.0274 12.7642ZM7.31535 12.7629V12.6129C7.21088 12.6129 7.11506 12.6136 7.02627 12.6142L7.0274 12.7642L7.02852 12.9142C7.11741 12.9136 7.21216 12.9129 7.31535 12.9129V12.7629ZM24.6847 12.7629V12.6129H7.31535V12.7629V12.9129H24.6847V12.7629ZM24.9726 12.7642L24.9737 12.6142C24.8849 12.6136 24.7891 12.6129 24.6847 12.6129V12.7629V12.9129C24.7878 12.9129 24.8826 12.9136 24.9715 12.9142L24.9726 12.7642ZM25.5897 12.7538L25.5788 12.6042C25.3995 12.6174 25.2138 12.6161 24.9737 12.6142L24.9726 12.7642L24.9715 12.9142C25.2086 12.916 25.4071 12.9176 25.6007 12.9034L25.5897 12.7538ZM26.0206 12.6584L25.9457 12.5285C25.909 12.5496 25.8141 12.5869 25.5788 12.6042L25.5897 12.7538L25.6007 12.9034C25.8544 12.8847 26.0017 12.8424 26.0955 12.7884L26.0206 12.6584ZM26.3256 11.3675H26.1756C26.1756 11.9158 26.111 12.2113 26.0498 12.367C26.0196 12.4439 25.9911 12.4844 25.9737 12.5043C25.9578 12.5224 25.9486 12.5268 25.9458 12.5284L26.0206 12.6584L26.0953 12.7885C26.1143 12.7776 26.1541 12.7538 26.1995 12.7018C26.2433 12.6516 26.2884 12.5801 26.329 12.4768C26.4094 12.2722 26.4756 11.9347 26.4756 11.3675H26.3256ZM25.9727 10.1724L25.8892 10.297C25.9264 10.3219 25.9941 10.3745 26.0551 10.5215C26.1183 10.6739 26.1756 10.9314 26.1756 11.3675H26.3256H26.4756C26.4756 10.9084 26.4157 10.608 26.3322 10.4066C26.2464 10.1997 26.1377 10.1023 26.0562 10.0477L25.9727 10.1724ZM24.6847 9.97211V10.1221C25.0378 10.1221 25.2986 10.1372 25.4942 10.168C25.6901 10.1988 25.8101 10.244 25.8892 10.297L25.9727 10.1724L26.0562 10.0477C25.9266 9.96092 25.7587 9.90595 25.5408 9.87164C25.3226 9.83726 25.0437 9.82211 24.6847 9.82211V9.97211ZM7.31535 9.97211V10.1221H24.6847V9.97211V9.82211H7.31535V9.97211ZM6.02729 10.1724L6.11077 10.297C6.18988 10.244 6.30993 10.1988 6.50585 10.168C6.70139 10.1372 6.96222 10.1221 7.31535 10.1221V9.97211V9.82211C6.95625 9.82211 6.67742 9.83726 6.45917 9.87164C6.24131 9.90595 6.07344 9.96092 5.94382 10.0477L6.02729 10.1724ZM7.31535 8.29766V8.14766C6.6585 8.14766 5.74175 8.16774 5.01202 8.65651L5.0955 8.78114L5.17897 8.90577C5.82341 8.47412 6.65059 8.44766 7.31535 8.44766V8.29766ZM24.6847 8.29766V8.14766H7.31535V8.29766V8.44766H24.6847V8.29766ZM26.9045 8.78114L26.988 8.65651C26.2583 8.16774 25.3415 8.14766 24.6847 8.14766V8.29766V8.44766C25.3494 8.44766 26.1766 8.47412 26.821 8.90577L26.9045 8.78114ZM28 11.3675H28.15C28.15 10.1734 27.8245 9.21678 26.988 8.65651L26.9045 8.78114L26.821 8.90577C27.5389 9.38658 27.85 10.2215 27.85 11.3675H28ZM26.8567 14.1092L26.9316 14.2391C27.8601 13.704 28.15 12.6566 28.15 11.3675H28H27.85C27.85 12.6309 27.5636 13.5286 26.7818 13.9792L26.8567 14.1092ZM25.7125 14.4237L25.7235 14.5733C26.0817 14.547 26.5204 14.4761 26.9316 14.2391L26.8567 14.1092L26.7818 13.9792C26.4274 14.1834 26.0409 14.2492 25.7015 14.2741L25.7125 14.4237ZM24.9044 14.4385L24.9032 14.5885C25.1601 14.5905 25.4559 14.593 25.7235 14.5733L25.7125 14.4237L25.7015 14.2741C25.4483 14.2927 25.1651 14.2906 24.9056 14.2885L24.9044 14.4385ZM24.6847 14.4373V14.5873C24.7534 14.5873 24.8265 14.5879 24.9032 14.5885L24.9044 14.4385L24.9056 14.2885C24.8292 14.2879 24.7548 14.2873 24.6847 14.2873V14.4373ZM7.31535 14.4373V14.5873H24.6847V14.4373V14.2873H7.31535V14.4373ZM7.09562 14.4385L7.09682 14.5885C7.17346 14.5879 7.24661 14.5873 7.31535 14.5873V14.4373V14.2873C7.2452 14.2873 7.17082 14.2879 7.09443 14.2885L7.09562 14.4385ZM6.28754 14.4237L6.27654 14.5733C6.54411 14.593 6.83993 14.5905 7.09682 14.5885L7.09562 14.4385L7.09443 14.2885C6.8349 14.2906 6.55171 14.2927 6.29853 14.2741L6.28754 14.4237ZM5.14335 14.1092L5.06845 14.2391C5.47957 14.4761 5.91828 14.547 6.27654 14.5733L6.28754 14.4237L6.29853 14.2741C5.95909 14.2492 5.57255 14.1834 5.21825 13.9792L5.14335 14.1092ZM4 11.3675H3.85C3.85 12.6566 4.1399 13.704 5.06845 14.2391L5.14335 14.1092L5.21825 13.9792C4.43644 13.5286 4.15 12.6309 4.15 11.3675H4ZM5.0955 8.78114L5.01202 8.65651C4.17554 9.21678 3.85 10.1734 3.85 11.3675H4H4.15C4.15 10.2215 4.46113 9.38658 5.17897 8.90577L5.0955 8.78114ZM26.3042 13.9249L26.4515 13.9531C26.5542 13.4176 26.2034 12.9003 25.6679 12.7976L25.6397 12.9449L25.6114 13.0922C25.9841 13.1637 26.2284 13.5239 26.1569 13.8966L26.3042 13.9249ZM24.4289 23.7034L24.5762 23.7317L26.4515 13.9531L26.3042 13.9249L26.1569 13.8966L24.2816 23.6752L24.4289 23.7034ZM23.1699 26.7194L23.2785 26.8229C24.1161 25.9452 24.3793 24.7598 24.5762 23.7316L24.4289 23.7034L24.2816 23.6752C24.0836 24.7092 23.8309 25.8095 23.0614 26.6158L23.1699 26.7194ZM19.2196 28V28.15C21.0791 28.15 22.3984 27.7452 23.2785 26.8229L23.1699 26.7194L23.0614 26.6158C22.2627 27.4527 21.0418 27.85 19.2196 27.85V28ZM12.4885 28V28.15H19.2196V28V27.85H12.4885V28ZM8.62484 26.6878L8.51811 26.7931C9.42422 27.7108 10.732 28.15 12.4885 28.15V28V27.85C10.7804 27.85 9.56236 27.4237 8.73158 26.5824L8.62484 26.6878ZM7.25312 23.5483L7.10512 23.5727C7.29337 24.714 7.63991 25.9038 8.51811 26.7931L8.62484 26.6878L8.73158 26.5824C7.92009 25.7605 7.58643 24.6473 7.40112 23.5239L7.25312 23.5483ZM6.37037 12.9409L6.34621 12.7928C5.80811 12.8806 5.44308 13.3881 5.53089 13.9262L5.67894 13.902L5.82698 13.8779C5.76585 13.5033 6.01995 13.15 6.39453 13.0889L6.37037 12.9409ZM7.33149 13.6323L7.47954 13.6082C7.39172 13.0701 6.88432 12.705 6.34621 12.7928L6.37037 12.9409L6.39453 13.0889C6.76911 13.0278 7.12232 13.2819 7.18345 13.6565L7.33149 13.6323ZM8.90522 23.2757L9.05326 23.2516L7.47954 13.6082L7.33149 13.6323L7.18345 13.6565L8.75717 23.2999L8.90522 23.2757ZM8.90522 23.2757L9.05321 23.2513C9.0532 23.2513 9.0532 23.2512 9.0532 23.2512C9.0532 23.2512 9.0532 23.2512 9.0532 23.2512C9.0532 23.2512 9.0532 23.2512 9.0532 23.2512C9.0532 23.2512 9.0532 23.2512 9.0532 23.2512C9.0532 23.2512 9.0532 23.2512 9.0532 23.2512C8.88075 23.1277 8.75721 23.3001 8.75721 23.3001C8.75721 23.3001 8.75721 23.3001 8.75721 23.3001C8.75721 23.3001 8.75721 23.3001 8.75721 23.3001C8.75721 23.3001 8.75721 23.3001 8.75721 23.3001C8.75721 23.3001 8.75721 23.3001 8.75721 23.3001C8.75721 23.3001 8.75721 23.3001 8.75721 23.3001C8.75721 23.3001 8.75721 23.3001 8.75721 23.3001C8.75721 23.3001 8.75721 23.3001 8.75721 23.3001C8.75721 23.3001 8.75721 23.3001 8.75721 23.3001C8.75721 23.3001 8.75721 23.3001 8.75721 23.3001C8.75721 23.3001 8.75721 23.3001 8.75721 23.3001C8.75721 23.3001 8.75722 23.3002 8.75722 23.3002C8.75723 23.3003 8.75723 23.3002 8.75723 23.3003C8.75724 23.3003 8.75723 23.3003 8.75723 23.3003C8.75723 23.3003 8.75723 23.3003 8.75723 23.3003C8.75723 23.3003 8.75723 23.3003 8.75723 23.3003C8.75723 23.3003 8.75723 23.3003 8.75723 23.3003C8.75723 23.3003 8.88077 23.1278 9.05322 23.2514C9.05322 23.2514 9.05322 23.2514 9.05322 23.2514C9.05322 23.2514 9.05322 23.2514 9.05322 23.2514C9.05322 23.2514 9.05322 23.2514 9.05322 23.2514C9.05322 23.2513 9.05322 23.2513 9.05321 23.2513L8.90522 23.2757L8.75722 23.3002C8.75723 23.3002 8.75723 23.3003 8.75723 23.3003C8.75723 23.3003 8.75723 23.3003 8.75723 23.3003C8.75723 23.3003 8.75723 23.3003 8.75723 23.3003C8.75723 23.3003 8.75723 23.3003 8.75723 23.3003C8.75723 23.3003 8.75723 23.3003 8.75723 23.3003C8.92968 23.4238 9.05322 23.2514 9.05322 23.2514C9.05322 23.2514 9.05322 23.2514 9.05322 23.2514C9.05322 23.2514 9.05322 23.2514 9.05322 23.2514C9.05322 23.2514 9.05322 23.2514 9.05322 23.2514C9.05322 23.2514 9.05322 23.2514 9.05322 23.2514C9.05322 23.2514 9.05322 23.2514 9.05322 23.2514C9.05322 23.2514 9.05322 23.2514 9.05322 23.2514C9.05322 23.2514 9.05322 23.2514 9.05322 23.2514C9.05322 23.2514 9.05322 23.2514 9.05322 23.2514C9.05322 23.2514 9.05322 23.2514 9.05322 23.2514C9.05322 23.2514 9.05322 23.2514 9.05322 23.2514C9.05322 23.2514 9.05321 23.2513 9.05321 23.2513C9.0532 23.2512 9.0532 23.2512 9.0532 23.2512C9.05319 23.2512 9.0532 23.2512 9.0532 23.2512C9.0532 23.2512 9.0532 23.2512 9.0532 23.2512C9.0532 23.2512 9.0532 23.2512 9.0532 23.2512C9.0532 23.2512 9.0532 23.2512 9.0532 23.2512C9.0532 23.2512 8.92966 23.4237 8.75721 23.3001C8.75721 23.3001 8.75721 23.3001 8.75721 23.3001C8.75721 23.3001 8.75721 23.3001 8.75721 23.3001C8.75721 23.3001 8.75721 23.3001 8.75721 23.3001C8.75722 23.3002 8.75722 23.3002 8.75722 23.3002L8.90522 23.2757ZM9.81629 25.5112L9.92302 25.4058C9.48416 24.9614 9.2222 24.2754 9.05321 23.2513L8.90522 23.2757L8.75722 23.3002C8.92911 24.3418 9.20391 25.1046 9.70955 25.6166L9.81629 25.5112ZM12.4885 26.3255V26.1755C11.0527 26.1755 10.3343 25.8223 9.92302 25.4058L9.81629 25.5112L9.70955 25.6166C10.1958 26.1091 11.0036 26.4755 12.4885 26.4755V26.3255ZM19.2196 26.3255V26.1755H12.4885V26.3255V26.4755H19.2196V26.3255ZM21.9586 25.5633L21.8501 25.4598C21.5049 25.8215 20.8314 26.1755 19.2196 26.1755V26.3255V26.4755C20.8695 26.4755 21.6409 26.1136 22.0671 25.6669L21.9586 25.5633ZM22.7843 23.3885L22.637 23.3603C22.4319 24.4317 22.2373 25.0541 21.8501 25.4598L21.9586 25.5633L22.0671 25.6669C22.5231 25.1892 22.728 24.4804 22.9317 23.4167L22.7843 23.3885ZM24.6597 13.6095L24.5124 13.5812L22.637 23.3603L22.7843 23.3885L22.9317 23.4168L24.8071 13.6377L24.6597 13.6095ZM25.6397 12.9449L25.6679 12.7976C25.1324 12.6949 24.6151 13.0458 24.5124 13.5812L24.6597 13.6095L24.8071 13.6377C24.8785 13.265 25.2387 13.0208 25.6114 13.0922L25.6397 12.9449ZM5.67894 13.902L5.53089 13.9262L7.10508 23.5724L7.25312 23.5483L7.40116 23.5241L5.82698 13.8779L5.67894 13.902Z" fill="#292D32"/>
<path fill-rule="evenodd" clip-rule="evenodd" d="M15.6664 23.256C15.4789 23.256 15.3269 23.104 15.3269 22.9164L15.3269 16.8978C15.3269 16.7103 15.4789 16.5582 15.6664 16.5582L16.3268 16.5582C16.5144 16.5582 16.6664 16.7103 16.6664 16.8978L16.6664 22.9165C16.6664 23.104 16.5144 23.256 16.3268 23.256L15.6664 23.256Z" fill="#292D32" stroke="#292D32" stroke-width="0.3"/>
<path fill-rule="evenodd" clip-rule="evenodd" d="M19.3415 20.2373C19.3415 20.4249 19.1895 20.5769 19.002 20.5769H12.9834C12.7959 20.5769 12.6439 20.4249 12.6439 20.2373V19.5769C12.6439 19.3894 12.7959 19.2374 12.9834 19.2374H19.002C19.1895 19.2374 19.3415 19.3894 19.3415 19.5769V20.2373Z" fill="#292D32" stroke="#292D32" stroke-width="0.3"/>
</svg>
