<svg width="32" height="32" viewBox="0 0 32 32" fill="none" xmlns="http://www.w3.org/2000/svg">
<path fill-rule="evenodd" clip-rule="evenodd" d="M15.9953 8.85465C16.5531 8.85465 17.0053 9.29523 17.0053 9.83871V13.4797C17.0053 14.0232 16.5531 14.4638 15.9953 14.4638C15.4376 14.4638 14.9854 14.0232 14.9854 13.4797V9.83871C14.9854 9.29523 15.4376 8.85465 15.9953 8.85465Z" fill="#2A2C39"/>
<path fill-rule="evenodd" clip-rule="evenodd" d="M7.53322 12.2661C7.53322 7.69892 11.3293 4 16.0166 4C20.6819 4 24.4984 7.72072 24.5111 12.2634L24.5111 12.2661L24.5111 14.5623C24.5111 14.8123 24.5684 15.1851 24.6812 15.5848C24.7941 15.985 24.9403 16.3327 25.0728 16.5468L25.0745 16.5495L26.4996 18.8675C27.6483 20.738 26.7372 23.1682 24.6061 23.8604C19.0353 25.6659 13.0096 25.6661 7.43888 23.8606C6.36687 23.5124 5.56249 22.78 5.20284 21.8314C4.84334 20.8832 4.96464 19.8168 5.54333 18.8698L5.54472 18.8675L6.96983 16.5495L6.97151 16.5468C7.10483 16.3315 7.25087 15.9856 7.36336 15.5882C7.47569 15.1912 7.53322 14.8183 7.53322 14.5623V12.2661ZM16.0166 5.96813C12.4449 5.96813 9.55306 8.78589 9.55306 12.2661V14.5623C9.55306 15.0497 9.45348 15.6062 9.31053 16.1114C9.1679 16.6153 8.96077 17.1436 8.70176 17.5622C8.70146 17.5627 8.70117 17.5632 8.70088 17.5637L7.27883 19.8767C7.27862 19.877 7.2784 19.8774 7.27819 19.8777C6.98223 20.3627 6.96898 20.8103 7.09753 21.1493C7.22601 21.4882 7.53314 21.8166 8.07701 21.9932C13.2335 23.6644 18.8108 23.6644 23.9673 21.9932C24.866 21.7013 25.2563 20.676 24.7666 19.8785L23.3435 17.5637C23.3432 17.5631 23.3428 17.5626 23.3425 17.5621C23.0828 17.1422 22.8758 16.6105 22.7336 16.1065C22.5911 15.6014 22.4913 15.0448 22.4913 14.5623V12.2677C22.481 8.80721 19.5649 5.96813 16.0166 5.96813Z" fill="#2A2C39"/>
<path fill-rule="evenodd" clip-rule="evenodd" d="M13.2685 23.3749C13.2685 24.0945 13.5777 24.7666 14.0724 25.2486C14.567 25.7305 15.2568 26.0319 15.9952 26.0319C17.491 26.0319 18.722 24.8324 18.722 23.3749H20.7419C20.7419 25.9193 18.6065 28 15.9952 28C14.6914 28 13.496 27.4704 12.6441 26.6402C11.7922 25.8101 11.2486 24.6453 11.2486 23.3749H13.2685Z" fill="#2A2C39"/>
</svg>
