<svg width="32" height="32" viewBox="0 0 32 32" fill="none" xmlns="http://www.w3.org/2000/svg">
<path fill-rule="evenodd" clip-rule="evenodd" d="M14.0318 5.2444C14.3592 5.5709 14.36 6.10099 14.0335 6.42839L11.1725 9.29724H22.8282L19.9673 6.42847C19.6408 6.10107 19.6416 5.57098 19.969 5.24448C20.2964 4.91798 20.8265 4.91871 21.153 5.24611L25.1929 9.29724H25.6847C26.3455 9.29724 27.2174 9.32051 27.9045 9.78071C28.6817 10.3012 29 11.197 29 12.367C29 13.6433 28.7118 14.6158 27.8567 15.1087C27.6513 15.227 27.4374 15.3015 27.2293 15.3491L25.4353 24.7035C25.2379 25.7346 24.9799 26.8774 24.1764 27.7194C23.337 28.599 22.0668 29 20.226 29H13.4949C11.7626 29 10.4997 28.5673 9.63125 27.6878C8.78641 26.8322 8.44631 25.6807 8.25953 24.5483L6.75778 15.3461C6.55377 15.2984 6.34443 15.2245 6.14335 15.1087C5.28817 14.6158 5 13.6433 5 12.367C5 11.197 5.31834 10.3012 6.0955 9.78071C6.78258 9.32051 7.65455 9.29724 8.31535 9.29724H8.80778L12.8478 5.24603C13.1743 4.91863 13.7044 4.9179 14.0318 5.2444ZM8.46914 15.4368L9.91163 24.2758C9.91166 24.2761 9.91159 24.2756 9.91163 24.2758C10.0821 25.3087 10.3504 26.033 10.8227 26.5113C11.2715 26.9658 12.0346 27.3256 13.4949 27.3256H20.226C21.8569 27.3256 22.5793 26.9676 22.965 26.5634C23.3866 26.1217 23.5863 25.4561 23.7908 24.3886L25.5075 15.4368H8.46914ZM7.02729 11.1719C6.90864 11.2514 6.67442 11.4719 6.67442 12.367C6.67442 13.4826 6.93498 13.6324 6.97852 13.6574C7.04371 13.695 7.16573 13.7353 7.41025 13.7533C7.59668 13.767 7.78879 13.7655 8.0274 13.7637C8.11624 13.7631 8.21152 13.7624 8.31535 13.7624H25.6847C25.7885 13.7624 25.8838 13.7631 25.9726 13.7637C26.2112 13.7655 26.4033 13.767 26.5897 13.7533C26.8343 13.7353 26.9554 13.6955 27.0206 13.6579C27.0641 13.6329 27.3256 13.4826 27.3256 12.367C27.3256 11.4719 27.0914 11.2514 26.9727 11.1719C26.764 11.0321 26.3969 10.9717 25.6847 10.9717H8.31535C7.60313 10.9717 7.23602 11.0321 7.02729 11.1719ZM13.093 18.6744C13.5554 18.6744 13.9302 19.0493 13.9302 19.5116C13.9302 21.1925 15.3191 22.5814 17 22.5814C18.6809 22.5814 20.0698 21.1925 20.0698 19.5116C20.0698 19.0493 20.4446 18.6744 20.907 18.6744C21.3694 18.6744 21.7442 19.0493 21.7442 19.5116C21.7442 22.1173 19.6056 24.2558 17 24.2558C14.3944 24.2558 12.2558 22.1173 12.2558 19.5116C12.2558 19.0493 12.6306 18.6744 13.093 18.6744Z" fill="#292D32"/>
</svg>
