<svg width="32" height="32" viewBox="0 0 32 32" fill="none" xmlns="http://www.w3.org/2000/svg">
<rect width="32" height="32" rx="8" fill="#E50D32"/>
<path d="M16 25.3319C24.6605 25.3319 25.3333 18.8545 25.3333 16.8691C25.3333 12.2822 22.1091 10.4257 20.4121 10.0812C20.2556 10.048 20.093 10.0598 19.9429 10.1151C19.7928 10.1703 19.6614 10.2669 19.5638 10.3937C19.4663 10.5204 19.4065 10.6722 19.3915 10.8314C19.3764 10.9906 19.4067 11.1509 19.4788 11.2937C19.8406 11.9091 19.9811 12.6297 19.8767 13.336C19.8029 13.4556 19.5127 13.4692 19.3905 13.4692C18.7219 13.4692 18.419 12.6131 18.2994 12.1031C17.9159 10.4808 18.408 8.52931 18.9222 8.27307C19.1027 8.18623 19.2466 8.03832 19.3286 7.85555C19.4105 7.67277 19.4251 7.4669 19.3698 7.27437C19.3146 7.08185 19.193 6.91508 19.0266 6.80359C18.8602 6.6921 18.6597 6.64308 18.4606 6.66519C18.2145 6.6898 13.2272 7.24216 10.6741 11.342C10.6525 11.0349 10.704 10.727 10.8242 10.4435C10.9091 10.2755 10.9356 10.0842 10.8998 9.89945C10.864 9.71474 10.7678 9.54717 10.6263 9.4231C10.4849 9.29904 10.3062 9.22551 10.1184 9.21408C9.93058 9.20266 9.7443 9.25398 9.58885 9.35998C9.46667 9.43974 6.66667 11.3658 6.66667 16.018C6.66667 22.1076 9.89091 25.3319 16 25.3319ZM9.11624 12.5622C9.24185 13.1602 9.41348 13.7477 9.62957 14.3194C9.69223 14.4871 9.80636 14.6308 9.95563 14.7298C10.1049 14.8287 10.2817 14.8779 10.4606 14.8703C10.6395 14.8626 10.8114 14.7986 10.9517 14.6873C11.0921 14.576 11.1936 14.4231 11.2417 14.2506C11.6272 12.9545 12.3324 11.7761 13.2924 10.8238C14.2524 9.87153 15.4365 9.17587 16.7356 8.80083C16.4044 10.006 16.3753 11.2743 16.6508 12.4934C17.0513 14.1904 18.0516 15.1662 19.3931 15.1662C19.7693 15.1981 20.1472 15.1279 20.4868 14.9628C20.8264 14.7978 21.1152 14.5441 21.3225 14.2286C21.6167 13.6927 21.7179 13.0721 21.6093 12.4705C22.2876 12.9762 22.8284 13.6436 23.1825 14.4119C23.5366 15.1802 23.6926 16.025 23.6364 16.8691C23.6364 19.3925 22.6445 23.6349 16 23.6349C10.8616 23.6349 8.36364 21.1429 8.36364 16.018C8.3406 14.8231 8.59838 13.6394 9.11624 12.5622Z" fill="white"/>
</svg>
