<svg width="32" height="32" viewBox="0 0 32 32" fill="none" xmlns="http://www.w3.org/2000/svg">
<path fill-rule="evenodd" clip-rule="evenodd" d="M16.4236 5.00172C17.5795 4.97458 18.7816 5.26861 19.735 5.93681L26.6322 10.7755V10.7755C27.3238 11.2584 27.9068 12.0029 28.3147 12.7854C28.7229 13.5682 29 14.473 29 15.3193V23.4562C29 26.4998 26.5167 29 23.4633 29H10.5367C7.48202 29 5 26.4985 5 23.445V15.1628C5 14.3687 5.2505 13.5092 5.61862 12.7579C5.98679 12.0066 6.51314 11.2808 7.14215 10.7908L13.1589 6.09644C14.0795 5.37948 15.2678 5.02885 16.4236 5.00172ZM14.1875 7.41937V7.41937L8.17133 12.1133C7.79596 12.4056 7.41217 12.904 7.12185 13.4964C6.83136 14.0892 6.67442 14.6939 6.67442 15.1628V23.445C6.67442 25.5777 8.41194 27.3234 10.5367 27.3234H23.4633C25.5894 27.3234 27.3256 25.5764 27.3256 23.4562V15.3193C27.3256 14.8132 27.1506 14.1755 26.8304 13.5612C26.5101 12.9468 26.0879 12.4393 25.6748 12.1509L25.6731 12.1497L18.7748 7.31029V7.31029C18.1654 6.88328 17.3302 6.65745 16.4629 6.67781C15.5956 6.69817 14.7738 6.96288 14.1875 7.41937Z" fill="#292D32"/>
<path fill-rule="evenodd" clip-rule="evenodd" d="M17.0008 19.5001C17.4631 19.5001 17.838 19.8754 17.838 20.3384V23.6915C17.838 24.1545 17.4631 24.5298 17.0008 24.5298C16.5384 24.5298 16.1635 24.1545 16.1635 23.6915V20.3384C16.1635 19.8754 16.5384 19.5001 17.0008 19.5001Z" fill="#292D32"/>
</svg>
