<svg width="32" height="32" viewBox="0 0 32 32" fill="none" xmlns="http://www.w3.org/2000/svg">
<path fill-rule="evenodd" clip-rule="evenodd" d="M7.10362 7.09499C6.19973 7.99637 5.67442 9.41626 5.67442 11.5139V17.0798C5.67442 19.7907 6.22549 21.1475 7.06293 21.8782C7.92803 22.633 9.31713 22.9239 11.5349 22.9239H12.093C12.4087 22.9239 12.7159 23.0222 12.9574 23.1416C13.1959 23.2595 13.4657 23.4451 13.6588 23.7071L15.3302 25.9295C15.5637 26.2399 15.8144 26.3302 16 26.3302C16.1856 26.3302 16.4363 26.2399 16.6698 25.9295L18.3442 23.7032L18.3474 23.6989C18.7154 23.216 19.2953 22.9239 19.907 22.9239H20.4651C22.5686 22.9239 23.9925 22.4001 24.8964 21.4987C25.8003 20.5973 26.3256 19.1774 26.3256 17.0798V11.5139C26.3256 11.0528 26.7004 10.679 27.1628 10.679C27.6252 10.679 28 11.0528 28 11.5139V17.0798C28 19.4348 27.409 21.3544 26.0804 22.6794C24.7517 24.0044 22.8267 24.5937 20.4651 24.5937H19.907C19.8271 24.5937 19.7379 24.635 19.6816 24.7078C19.6813 24.7083 19.6809 24.7088 19.6805 24.7093L18.0093 26.9314C17.506 27.6005 16.7855 28 16 28C15.2145 28 14.494 27.6005 13.9907 26.9314L12.3149 24.7032C12.3124 24.7008 12.3074 24.6963 12.2992 24.6899C12.279 24.6743 12.2497 24.6554 12.2137 24.6376C12.1778 24.6199 12.1436 24.6073 12.1162 24.5999C12.1 24.5956 12.0904 24.5941 12.0874 24.5937H11.5349C9.28752 24.5937 7.32778 24.328 5.96032 23.1348C4.56521 21.9175 4 19.9347 4 17.0798V11.5139C4 9.15888 4.59097 7.23925 5.91963 5.91429C7.24829 4.58932 9.17327 4 11.5349 4H16C16.4624 4 16.8372 4.37379 16.8372 4.83488C16.8372 5.29597 16.4624 5.66976 16 5.66976H11.5349C9.43138 5.66976 8.00752 6.19361 7.10362 7.09499Z" fill="#292D32"/>
<path fill-rule="evenodd" clip-rule="evenodd" d="M24.2642 5.80619C23.8484 5.68213 23.4492 5.81211 23.2813 6.05158C23.1181 6.28434 22.8514 6.42572 22.5644 6.43165C22.2773 6.43758 22.0049 6.30733 21.8319 6.08151C21.6239 5.80993 21.2102 5.69342 20.8306 5.80514C20.1567 6.01726 19.7727 6.84268 20.0554 7.67969C20.291 8.37102 20.8189 8.93111 21.4006 9.33002C21.6871 9.52646 21.9685 9.67086 22.1989 9.76345C22.3942 9.8419 22.5073 9.86497 22.5396 9.87156C22.542 9.87205 22.5439 9.87244 22.5454 9.87276C22.547 9.87241 22.5492 9.87196 22.5519 9.8714C22.585 9.86455 22.6989 9.84096 22.8952 9.76196C23.1281 9.66829 23.4119 9.5226 23.7 9.32532C24.2865 8.92367 24.8097 8.36553 25.0334 7.68691L25.0356 7.68048C25.3216 6.83499 24.9278 6.00655 24.2642 5.80619ZM22.5308 4.37534C23.2431 3.94584 24.1183 3.92089 24.7845 4.12017L24.786 4.12063C26.6958 4.69565 27.2322 6.75443 26.7332 8.23456C26.3484 9.39876 25.5015 10.2376 24.7206 10.7724C24.3246 11.0436 23.9251 11.2511 23.5712 11.3935C23.2461 11.5243 22.871 11.6364 22.5456 11.6364C22.2212 11.6364 21.8483 11.5256 21.5238 11.3953C21.1712 11.2537 20.7738 11.0471 20.3792 10.7765C19.599 10.2416 18.756 9.4039 18.3596 8.23935L18.3591 8.23777C17.8561 6.75071 18.3996 4.71176 20.298 4.12284L20.3068 4.12012C20.9937 3.91462 21.8353 3.96717 22.5308 4.37534Z" fill="#292D32"/>
<path fill-rule="evenodd" clip-rule="evenodd" d="M19.2727 14.9091C19.2727 14.3066 19.759 13.8182 20.3588 13.8182H20.3685C20.9683 13.8182 21.4545 14.3066 21.4545 14.9091C21.4545 15.5116 20.9683 16 20.3685 16H20.3588C19.759 16 19.2727 15.5116 19.2727 14.9091Z" fill="#292D32"/>
<path fill-rule="evenodd" clip-rule="evenodd" d="M14.9091 14.9091C14.9091 14.3066 15.3953 13.8182 15.9951 13.8182H16.0049C16.6047 13.8182 17.0909 14.3066 17.0909 14.9091C17.0909 15.5116 16.6047 16 16.0049 16H15.9951C15.3953 16 14.9091 15.5116 14.9091 14.9091Z" fill="#292D32"/>
<path fill-rule="evenodd" clip-rule="evenodd" d="M10.5455 14.9091C10.5455 14.3066 11.0317 13.8182 11.6315 13.8182H11.6412C12.241 13.8182 12.7273 14.3066 12.7273 14.9091C12.7273 15.5116 12.241 16 11.6412 16H11.6315C11.0317 16 10.5455 15.5116 10.5455 14.9091Z" fill="#292D32"/>
</svg>
