<svg width="32" height="32" viewBox="0 0 32 32" fill="none" xmlns="http://www.w3.org/2000/svg">
<path fill-rule="evenodd" clip-rule="evenodd" d="M16.0004 10.4223C14.44 10.4223 13.1892 11.6809 13.1892 13.2334C13.1892 14.7321 14.36 15.954 15.8433 16.0317C15.9455 16.0233 16.0545 16.0226 16.1603 16.0315C17.6373 15.9526 18.8018 14.7354 18.8115 13.2311C18.8102 11.6813 17.5505 10.4223 16.0004 10.4223ZM11.5226 13.2334C11.5226 10.7637 13.5163 8.75564 16.0004 8.75564C18.4717 8.75564 20.4782 10.7621 20.4782 13.2334V13.2381C20.4645 15.6474 18.5695 17.6176 16.1621 17.6996C16.1143 17.7013 16.0665 17.6988 16.0192 17.6922C16.019 17.6922 16.0195 17.6922 16.0192 17.6922C16.0163 17.692 16.0109 17.6918 16.0045 17.6918C15.9909 17.6918 15.9783 17.6927 15.9704 17.6937C15.9267 17.6991 15.8827 17.7011 15.8387 17.6996C13.4355 17.6177 11.5226 15.6506 11.5226 13.2334Z" fill="#292D32"/>
<path fill-rule="evenodd" clip-rule="evenodd" d="M10.9403 22.0263C10.0845 22.6027 9.60612 23.2622 9.41973 23.8891C11.2044 25.3835 13.4923 26.278 15.9993 26.278C18.5063 26.278 20.7942 25.3835 22.5789 23.8891C22.3924 23.262 21.9137 22.6021 21.0572 22.0255C19.7125 21.1261 17.884 20.6502 16.0076 20.6502C14.1321 20.6502 12.2972 21.1257 10.9403 22.0263ZM16.0076 18.9835C18.1364 18.9835 20.3075 19.5185 21.9849 20.6409L21.9867 20.6421C23.323 21.5413 24.1732 22.7618 24.3168 24.112C24.3448 24.3752 24.2462 24.636 24.051 24.8148C21.9257 26.7609 19.1047 27.9446 15.9993 27.9446C12.8939 27.9446 10.0729 26.7609 7.94763 24.8148C7.75244 24.636 7.65376 24.3752 7.68176 24.112C7.8254 22.7618 8.67556 21.5413 10.0119 20.6421L10.016 20.6393C11.7033 19.5186 13.8786 18.9835 16.0076 18.9835Z" fill="#292D32"/>
<path fill-rule="evenodd" clip-rule="evenodd" d="M4 16C4 9.37258 9.37258 4 16 4C22.6274 4 28 9.37258 28 16C28 22.6274 22.6274 28 16 28C9.37258 28 4 22.6274 4 16ZM16 5.77778C10.3544 5.77778 5.77778 10.3544 5.77778 16C5.77778 21.6455 10.3544 26.2222 16 26.2222C21.6455 26.2222 26.2222 21.6455 26.2222 16C26.2222 10.3544 21.6455 5.77778 16 5.77778Z" fill="#292D32"/>
</svg>
