<svg width="32" height="32" viewBox="0 0 32 32" fill="none" xmlns="http://www.w3.org/2000/svg">
<path fill-rule="evenodd" clip-rule="evenodd" d="M11.7992 4.76855C11.8517 4.33222 12.2922 4 12.8183 4H19.1954C19.722 4 20.1628 4.33293 20.2146 4.76981L21.1159 12.3739C21.4207 14.9573 19.1066 17.0909 16 17.0909C12.8935 17.0909 10.5793 14.9576 10.8841 12.3743L11.7992 4.76855ZM13.7449 5.70751L12.9226 12.5414V12.5414C12.7364 14.1241 14.109 15.3834 16 15.3834C17.8912 15.3834 19.264 14.1246 19.0775 12.5418V12.5418L18.2675 5.70751H13.7449Z" fill="#292D32"/>
<path fill-rule="evenodd" clip-rule="evenodd" d="M17.9403 4.28084C18.1059 4.10202 18.3413 4 18.5881 4H22.1417C23.7575 4 25.0785 4.29753 26.0406 5.16574C26.9911 6.02355 27.4258 7.29217 27.6444 8.83468C27.6458 8.84487 27.6471 8.85507 27.6481 8.8653L27.9745 11.9977C28.2586 14.7865 26.1322 17.0909 23.2602 17.0909C20.89 17.0909 18.7785 15.2348 18.5345 12.921L18.5342 12.9184L17.7186 4.93859C17.6941 4.69859 17.7746 4.45966 17.9403 4.28084ZM19.5535 5.70751L20.2729 12.746L20.273 12.7472C20.4258 14.1895 21.7859 15.3834 23.2602 15.3834C25.0948 15.3834 26.417 13.9546 26.2356 12.1677V12.1677L25.9111 9.05384C25.7098 7.64618 25.353 6.86971 24.8547 6.42003C24.3662 5.97915 23.5784 5.70751 22.1417 5.70751H19.5535Z" fill="#292D32"/>
<path fill-rule="evenodd" clip-rule="evenodd" d="M5.94999 5.16574C6.9131 4.29753 8.23567 4 9.85329 4H13.4109C13.6581 4 13.8937 4.10204 14.0595 4.28088C14.2254 4.45973 14.306 4.6987 14.2814 4.93871L13.4651 12.9159V12.9159C13.2342 15.2344 11.1166 17.0909 8.74519 17.0909C5.87007 17.0909 3.74145 14.7868 4.02542 11.9983V11.9983L4.3403 8.86836C4.34143 8.85711 4.34279 8.84588 4.34438 8.83468C4.56323 7.29217 4.9984 6.02355 5.94999 5.16574ZM6.07984 9.05235L5.76663 12.1656C5.5844 13.953 6.90817 15.3834 8.74519 15.3834C10.2226 15.3834 11.5808 14.1887 11.7237 12.7511L11.7239 12.7489L12.4442 5.70751H9.85329C8.4149 5.70751 7.62624 5.97915 7.13716 6.42004C6.6385 6.86955 6.28134 7.64563 6.07984 9.05235Z" fill="#292D32"/>
<path fill-rule="evenodd" clip-rule="evenodd" d="M13.0381 21.3545C13.7852 20.6413 14.8314 20.3636 16 20.3636C17.1686 20.3636 18.2148 20.6413 18.9619 21.3545C19.7091 22.0677 20 23.0664 20 24.1818V27.1189C20 27.6055 19.5867 28 19.0769 28H12.9231C12.4133 28 12 27.6055 12 27.1189V24.1818C12 23.0664 12.2909 22.0677 13.0381 21.3545ZM14.3435 22.6006C14.066 22.8654 13.8462 23.3353 13.8462 24.1818V26.2378H18.1538V24.1818C18.1538 23.3353 17.934 22.8654 17.6565 22.6006C17.3791 22.3358 16.8868 22.1259 16 22.1259C15.1132 22.1259 14.6209 22.3358 14.3435 22.6006Z" fill="#292D32"/>
<path fill-rule="evenodd" clip-rule="evenodd" d="M5.97931 14.9091C6.44127 14.9091 6.81576 15.2671 6.81576 15.7086V20.4951C6.81576 22.8091 7.30606 24.2225 8.20045 25.0774C9.09485 25.9323 10.5735 26.4009 12.9943 26.4009H19.0057C21.4265 26.4009 22.9052 25.9323 23.7995 25.0774C24.6939 24.2225 25.1842 22.8091 25.1842 20.4951V15.7086C25.1842 15.2671 25.5587 14.9091 26.0207 14.9091C26.4827 14.9091 26.8571 15.2671 26.8571 15.7086V20.4951C26.8571 22.9677 26.3437 24.9069 24.9825 26.2081C23.6212 27.5092 21.5924 28 19.0057 28H12.9943C10.4076 28 8.37877 27.5092 7.01753 26.2081C5.6563 24.9069 5.14286 22.9677 5.14286 20.4951V15.7086C5.14286 15.2671 5.51735 14.9091 5.97931 14.9091Z" fill="#292D32"/>
</svg>
